<svg width="78" height="1503" viewBox="0 0 78 1503" fill="none" xmlns="http://www.w3.org/2000/svg">
<circle cx="0.5" cy="1402" r="2" fill="#ABB2BF"/>
<circle cx="25.25" cy="1402" r="2" fill="#ABB2BF"/>
<circle cx="50" cy="1402" r="2" fill="#ABB2BF"/>
<circle cx="0.5" cy="1426.75" r="2" fill="#ABB2BF"/>
<circle cx="25.25" cy="1426.75" r="2" fill="#ABB2BF"/>
<circle cx="50" cy="1426.75" r="2" fill="#ABB2BF"/>
<circle cx="0.5" cy="1451.5" r="2" fill="#ABB2BF"/>
<circle cx="25.25" cy="1451.5" r="2" fill="#ABB2BF"/>
<circle cx="50" cy="1451.5" r="2" fill="#ABB2BF"/>
<circle cx="0.5" cy="1476.25" r="2" fill="#ABB2BF"/>
<circle cx="25.25" cy="1476.25" r="2" fill="#ABB2BF"/>
<circle cx="50" cy="1476.25" r="2" fill="#ABB2BF"/>
<circle cx="0.5" cy="1501" r="2" fill="#ABB2BF"/>
<circle cx="25.25" cy="1501" r="2" fill="#ABB2BF"/>
<circle cx="50" cy="1501" r="2" fill="#ABB2BF"/>
<circle cx="23.5" cy="2" r="2" fill="#ABB2BF"/>
<circle cx="49.75" cy="2" r="2" fill="#ABB2BF"/>
<circle cx="76" cy="2" r="2" fill="#ABB2BF"/>
<circle cx="23.5" cy="17" r="2" fill="#ABB2BF"/>
<circle cx="49.75" cy="17" r="2" fill="#ABB2BF"/>
<circle cx="76" cy="17" r="2" fill="#ABB2BF"/>
<circle cx="23.5" cy="32" r="2" fill="#ABB2BF"/>
<circle cx="49.75" cy="32" r="2" fill="#ABB2BF"/>
<circle cx="76" cy="32" r="2" fill="#ABB2BF"/>
<circle cx="23.5" cy="47" r="2" fill="#ABB2BF"/>
<circle cx="49.75" cy="47" r="2" fill="#ABB2BF"/>
<circle cx="76" cy="47" r="2" fill="#ABB2BF"/>
<rect x="-76.5" y="820.5" width="154" height="154" stroke="#ABB2BF"/>
</svg>
