<svg width="80" height="1237" viewBox="0 0 80 1237" fill="none" xmlns="http://www.w3.org/2000/svg">
<circle cx="2" cy="1136" r="2" fill="#ABB2BF"/>
<circle cx="26.75" cy="1136" r="2" fill="#ABB2BF"/>
<circle cx="51.5" cy="1136" r="2" fill="#ABB2BF"/>
<circle cx="76.25" cy="1136" r="2" fill="#ABB2BF"/>
<circle cx="2" cy="1160.75" r="2" fill="#ABB2BF"/>
<circle cx="26.75" cy="1160.75" r="2" fill="#ABB2BF"/>
<circle cx="51.5" cy="1160.75" r="2" fill="#ABB2BF"/>
<circle cx="76.25" cy="1160.75" r="2" fill="#ABB2BF"/>
<circle cx="2" cy="1185.5" r="2" fill="#ABB2BF"/>
<circle cx="26.75" cy="1185.5" r="2" fill="#ABB2BF"/>
<circle cx="51.5" cy="1185.5" r="2" fill="#ABB2BF"/>
<circle cx="76.25" cy="1185.5" r="2" fill="#ABB2BF"/>
<circle cx="2" cy="1210.25" r="2" fill="#ABB2BF"/>
<circle cx="26.75" cy="1210.25" r="2" fill="#ABB2BF"/>
<circle cx="51.5" cy="1210.25" r="2" fill="#ABB2BF"/>
<circle cx="76.25" cy="1210.25" r="2" fill="#ABB2BF"/>
<circle cx="2" cy="1235" r="2" fill="#ABB2BF"/>
<circle cx="26.75" cy="1235" r="2" fill="#ABB2BF"/>
<circle cx="51.5" cy="1235" r="2" fill="#ABB2BF"/>
<circle cx="76.25" cy="1235" r="2" fill="#ABB2BF"/>
<circle cx="29" cy="513" r="2" fill="#ABB2BF"/>
<circle cx="53.75" cy="513" r="2" fill="#ABB2BF"/>
<circle cx="78.5" cy="513" r="2" fill="#ABB2BF"/>
<circle cx="29" cy="537.75" r="2" fill="#ABB2BF"/>
<circle cx="53.75" cy="537.75" r="2" fill="#ABB2BF"/>
<circle cx="78.5" cy="537.75" r="2" fill="#ABB2BF"/>
<circle cx="29" cy="562.5" r="2" fill="#ABB2BF"/>
<circle cx="53.75" cy="562.5" r="2" fill="#ABB2BF"/>
<circle cx="78.5" cy="562.5" r="2" fill="#ABB2BF"/>
<circle cx="29" cy="587.25" r="2" fill="#ABB2BF"/>
<circle cx="53.75" cy="587.25" r="2" fill="#ABB2BF"/>
<circle cx="78.5" cy="587.25" r="2" fill="#ABB2BF"/>
<circle cx="29" cy="612" r="2" fill="#ABB2BF"/>
<circle cx="53.75" cy="612" r="2" fill="#ABB2BF"/>
<circle cx="78.5" cy="612" r="2" fill="#ABB2BF"/>
<rect x="12.5" y="0.5" width="154" height="154" stroke="#ABB2BF"/>
</svg>
