<svg width="82" height="1725" viewBox="0 0 82 1725" fill="none" xmlns="http://www.w3.org/2000/svg">
<circle cx="4" cy="1624" r="2" fill="#ABB2BF"/>
<circle cx="28.75" cy="1624" r="2" fill="#ABB2BF"/>
<circle cx="53.5" cy="1624" r="2" fill="#ABB2BF"/>
<circle cx="78.25" cy="1624" r="2" fill="#ABB2BF"/>
<circle cx="4" cy="1648.75" r="2" fill="#ABB2BF"/>
<circle cx="28.75" cy="1648.75" r="2" fill="#ABB2BF"/>
<circle cx="53.5" cy="1648.75" r="2" fill="#ABB2BF"/>
<circle cx="78.25" cy="1648.75" r="2" fill="#ABB2BF"/>
<circle cx="4" cy="1673.5" r="2" fill="#ABB2BF"/>
<circle cx="28.75" cy="1673.5" r="2" fill="#ABB2BF"/>
<circle cx="53.5" cy="1673.5" r="2" fill="#ABB2BF"/>
<circle cx="78.25" cy="1673.5" r="2" fill="#ABB2BF"/>
<circle cx="4" cy="1698.25" r="2" fill="#ABB2BF"/>
<circle cx="28.75" cy="1698.25" r="2" fill="#ABB2BF"/>
<circle cx="53.5" cy="1698.25" r="2" fill="#ABB2BF"/>
<circle cx="78.25" cy="1698.25" r="2" fill="#ABB2BF"/>
<circle cx="4" cy="1723" r="2" fill="#ABB2BF"/>
<circle cx="28.75" cy="1723" r="2" fill="#ABB2BF"/>
<circle cx="53.5" cy="1723" r="2" fill="#ABB2BF"/>
<circle cx="78.25" cy="1723" r="2" fill="#ABB2BF"/>
<rect x="14.5" y="488.5" width="154" height="154" stroke="#ABB2BF"/>
<rect x="0.5" y="0.5" width="90" height="90" stroke="#ABB2BF"/>
</svg>
